Normalized EMG Linear Envelopes
nRows=212
nColumns=4

endheader
time	 med_gas_r	  soleus_r	 tib_ant_r	
4.42411	  0.063477	  0.092524	  0.145814	
4.45738	  0.065518	  0.098638	  0.170432	
4.49064	  0.067184	  0.105105	  0.195485	
4.5239	  0.068178	  0.111969	  0.220813	
4.55717	  0.068448	  0.118696	  0.243956	
4.59043	  0.068249	  0.124580	  0.261689	
4.6237	  0.068036	  0.129280	  0.272189	
4.65696	  0.068255	  0.133018	  0.276187	
4.69022	  0.069221	  0.136357	  0.276313	
4.72349	  0.071118	  0.139834	  0.275436	
4.75675	  0.073987	  0.143765	  0.275406	
4.79002	  0.077659	  0.148180	  0.277003	
4.82328	  0.081742	  0.152774	  0.280606	
4.85654	  0.085806	  0.156867	  0.286628	
4.88981	  0.089625	  0.159554	  0.295296	
4.92307	  0.093200	  0.160084	  0.306175	
4.95634	  0.096520	  0.158251	  0.318019	
4.9896	  0.099317	  0.154517	  0.329126	
5.02286	  0.101116	  0.149763	  0.337998	
5.05613	  0.101546	  0.144898	  0.343922	
5.08939	  0.100616	  0.140607	  0.347130	
5.12266	  0.098760	  0.137360	  0.348429	
5.15592	  0.096694	  0.135497	  0.348610	
5.18918	  0.095225	  0.135173	  0.348118	
5.22245	  0.095100	  0.136195	  0.347136	
5.25571	  0.096869	  0.137994	  0.345809	
5.28898	  0.100816	  0.139909	  0.344284	
5.32224	  0.107013	  0.141631	  0.342580	
5.3555	  0.115441	  0.143413	  0.340519	
5.38877	  0.125927	  0.145849	  0.337860	
5.42203	  0.137724	  0.149350	  0.334539	
5.4553	  0.149079	  0.153734	  0.330809	
5.48856	  0.157473	  0.158226	  0.327228	
5.52182	  0.160811	  0.161845	  0.324586	
5.55509	  0.158895	  0.163870	  0.323778	
5.58835	  0.153957	  0.164098	  0.325531	
5.62162	  0.149670	  0.162838	  0.329988	
5.65488	  0.149279	  0.160768	  0.336498	
5.68814	  0.154115	  0.158738	  0.343959	
5.72141	  0.163337	  0.157538	  0.351600	
5.75467	  0.174715	  0.157633	  0.359568	
5.78794	  0.185791	  0.158970	  0.368752	
5.8212	  0.194797	  0.161015	  0.379908	
5.85446	  0.201115	  0.163043	  0.392734	
5.88773	  0.205255	  0.164504	  0.405618	
5.92099	  0.208375	  0.165190	  0.416326	
5.95426	  0.211518	  0.165116	  0.423200	
5.98752	  0.214952	  0.164334	  0.425991	
6.02078	  0.218031	  0.162952	  0.425750	
6.05405	  0.219594	  0.161321	  0.423996	
6.08731	  0.218560	  0.160070	  0.422028	
6.12058	  0.214377	  0.159792	  0.420870	
6.15384	  0.207214	  0.160642	  0.421445	
6.1871	  0.197962	  0.162290	  0.424290	
6.22037	  0.188034	  0.164290	  0.428859	
6.25363	  0.178956	  0.166465	  0.433351	
6.2869	  0.171935	  0.168900	  0.435687	
6.32016	  0.167692	  0.171584	  0.434976	
6.35342	  0.166571	  0.174138	  0.432162	
6.38669	  0.168549	  0.175946	  0.429240	
6.41995	  0.172936	  0.176577	  0.427711	
6.45322	  0.178140	  0.176128	  0.427581	
6.48648	  0.182090	  0.175181	  0.427637	
6.51974	  0.183271	  0.174418	  0.426587	
6.55301	  0.181536	  0.174208	  0.423914	
6.58627	  0.177989	  0.174468	  0.419746	
6.61954	  0.174113	  0.174872	  0.414161	
6.6528	  0.171048	  0.175169	  0.406976	
6.68606	  0.169478	  0.175318	  0.398362	
6.71933	  0.169812	  0.175363	  0.389583	
6.75259	  0.172140	  0.175214	  0.382859	
6.78586	  0.176002	  0.174605	  0.380262	
6.81912	  0.180417	  0.173263	  0.382555	
6.85238	  0.184408	  0.171097	  0.389000	
6.88565	  0.187559	  0.168209	  0.398321	
6.91891	  0.190020	  0.164739	  0.410006	
6.95218	  0.191984	  0.160746	  0.424947	
6.98544	  0.193304	  0.156302	  0.445031	
7.0187	  0.193734	  0.151716	  0.472074	
7.05197	  0.193525	  0.147652	  0.506722	
7.08523	  0.193588	  0.144958	  0.547630	
7.1185	  0.194972	  0.144307	  0.591108	
7.15176	  0.198099	  0.145901	  0.631554	
7.18502	  0.202429	  0.149418	  0.662843	
7.21829	  0.206708	  0.154173	  0.680252	
7.25155	  0.209561	  0.159332	  0.681839	
7.28482	  0.210130	  0.164068	  0.668519	
7.31808	  0.208569	  0.167687	  0.643153	
7.35134	  0.206079	  0.169730	  0.609635	
7.38461	  0.204308	  0.170049	  0.572417	
7.41787	  0.204438	  0.168796	  0.535909	
7.45114	  0.206711	  0.166371	  0.503295	
7.4844	  0.210666	  0.163346	  0.475525	
7.51766	  0.215588	  0.160389	  0.451743	
7.55093	  0.220547	  0.158106	  0.431132	
7.58419	  0.224225	  0.156859	  0.414438	
7.61746	  0.225242	  0.156629	  0.403606	
7.65072	  0.223031	  0.157056	  0.399995	
7.68398	  0.218365	  0.157628	  0.403156	
7.71725	  0.212796	  0.157915	  0.411349	
7.75051	  0.207526	  0.157719	  0.422985	
7.78378	  0.202880	  0.157082	  0.437284	
7.81704	  0.198748	  0.156200	  0.453559	
7.8503	  0.195252	  0.155362	  0.470124	
7.88357	  0.192843	  0.154981	  0.484112	
7.91683	  0.191920	  0.155620	  0.492475	
7.9501	  0.192577	  0.157837	  0.493286	
7.98336	  0.194714	  0.161819	  0.486432	
8.01662	  0.198211	  0.167066	  0.473490	
8.04989	  0.202903	  0.172404	  0.457128	
8.08315	  0.208505	  0.176436	  0.440386	
8.11642	  0.214704	  0.178182	  0.425907	
8.14968	  0.221402	  0.177557	  0.415224	
8.18294	  0.228778	  0.175337	  0.408350	
8.21621	  0.237012	  0.172646	  0.404023	
8.24947	  0.245925	  0.170333	  0.400662	
8.28274	  0.254903	  0.168684	  0.397568	
8.316	  0.263141	  0.167595	  0.395523	
8.34926	  0.269935	  0.166909	  0.396182	
8.38253	  0.274906	  0.166555	  0.400491	
8.41579	  0.278233	  0.166457	  0.407319	
8.44906	  0.280763	  0.166426	  0.413515	
8.48232	  0.283616	  0.166194	  0.415559	
8.51558	  0.287339	  0.165547	  0.411586	
8.54885	  0.291351	  0.164457	  0.402256	
8.58211	  0.294340	  0.163166	  0.389987	
8.61538	  0.295311	  0.162153	  0.377437	
8.64864	  0.294355	  0.161908	  0.366486	
8.6819	  0.292566	  0.162539	  0.358136	
8.71517	  0.291317	  0.163524	  0.352813	
8.74843	  0.291527	  0.163909	  0.350527	
8.7817	  0.293420	  0.162953	  0.351010	
8.81496	  0.296900	  0.160778	  0.354091	
8.84822	  0.302152	  0.158458	  0.360036	
8.88149	  0.309780	  0.157443	  0.369219	
8.91475	  0.320265	  0.158730	  0.381211	
8.94802	  0.333315	  0.162411	  0.394209	
8.98128	  0.347794	  0.167850	  0.405564	
9.01454	  0.362171	  0.174250	  0.413036	
9.04781	  0.374867	  0.181075	  0.415754	
9.08107	  0.384226	  0.188049	  0.414322	
9.11434	  0.388665	  0.194869	  0.410317	
9.1476	  0.387365	  0.201054	  0.405719	
9.18086	  0.380982	  0.206165	  0.402492	
9.21413	  0.371471	  0.210130	  0.402185	
9.24739	  0.360994	  0.213305	  0.405405	
9.28066	  0.350920	  0.216146	  0.411314	
9.31392	  0.341722	  0.218832	  0.417653	
9.34718	  0.333540	  0.221182	  0.421655	
9.38045	  0.326623	  0.222866	  0.421487	
9.41371	  0.321375	  0.223644	  0.417241	
9.44698	  0.318185	  0.223453	  0.410758	
9.48024	  0.317243	  0.222344	  0.404491	
9.5135	  0.318338	  0.220428	  0.400346	
9.54677	  0.320778	  0.217895	  0.399141	
9.58003	  0.323607	  0.215022	  0.400645	
9.6133	  0.326024	  0.212072	  0.403787	
9.64656	  0.327596	  0.209111	  0.406987	
9.67982	  0.328122	  0.205901	  0.408649	
9.71309	  0.327395	  0.201995	  0.407585	
9.74635	  0.325128	  0.197005	  0.402941	
9.77962	  0.321025	  0.190856	  0.393674	
9.81288	  0.314886	  0.183859	  0.378278	
9.84614	  0.306881	  0.176522	  0.355342	
9.87941	  0.297921	  0.169205	  0.324664	
9.91267	  0.289697	  0.161861	  0.287969	
9.94594	  0.284079	  0.154108	  0.248536	
9.9792	  0.282257	  0.145643	  0.209963	
10.0125	  0.284372	  0.136634	  0.174963	
10.0457	  0.289904	  0.127742	  0.144930	
10.079	  0.298292	  0.119761	  0.120239	
10.1123	  0.309153	  0.113213	  0.100740	
10.1455	  0.322052	  0.108216	  0.086000	
10.1788	  0.336266	  0.104618	  0.075370	
10.212	  0.350826	  0.102208	  0.068070	
10.2453	  0.364666	  0.100835	  0.063348	
10.2786	  0.376624	  0.100445	  0.060554	
10.3118	  0.385373	  0.101057	  0.059080	
10.3451	  0.389591	  0.102694	  0.058310	
10.3784	  0.388452	  0.105262	  0.057701	
10.4116	  0.382120	  0.108410	  0.056933	
10.4449	  0.371882	  0.111471	  0.055934	
10.4782	  0.359777	  0.113616	  0.054741	
10.5114	  0.347956	  0.114197	  0.053342	
10.5447	  0.338088	  0.113058	  0.051659	
10.578	  0.331068	  0.110542	  0.049657	
10.6112	  0.327086	  0.107170	  0.047411	
10.6445	  0.325905	  0.103277	  0.045054	
10.6777	  0.327153	  0.098928	  0.042681	
10.711	  0.330364	  0.094157	  0.040353	
10.7443	  0.334762	  0.089225	  0.038169	
10.7775	  0.339050	  0.084659	  0.036297	
10.8108	  0.341672	  0.081070	  0.034895	
10.8441	  0.341588	  0.078945	  0.033999	
10.8773	  0.338966	  0.078516	  0.033468	
10.9106	  0.335163	  0.079694	  0.033071	
10.9439	  0.331965	  0.082064	  0.032613	
10.9771	  0.330675	  0.085000	  0.032038	
11.0104	  0.331590	  0.087919	  0.031426	
11.0436	  0.334046	  0.090560	  0.030929	
11.0769	  0.336930	  0.093060	  0.030672	
11.1102	  0.339361	  0.095745	  0.030696	
11.1434	  0.341119	  0.098726	  0.030943	
11.1767	  0.342518	  0.101598	  0.031282	
11.21	  0.343892	  0.103563	  0.031560	
11.2432	  0.345136	  0.103957	  0.031648	
11.2765	  0.345526	  0.102818	  0.031475	
11.3098	  0.343763	  0.101009	  0.031013	
11.343	  0.338261	  0.099759	  0.030265	
11.3763	  0.327853	  0.099979	  0.029261	
11.4096	  0.312669	  0.101862	  0.028067	
11.4428	  0.294531	  0.104947	  0.026793	
